<?xml version="1.0" encoding="UTF-8"?>
<!--https://github.com/muchdogesec/stix2icons/-->
<svg width="200" height="200" xmlns="http://www.w3.org/2000/svg" viewBox="0 0 85 85" id="bank-account">
	<path d="M49.2,47.4c2.1-2.9,2.1-6.9,0-9.8l2.8-2.8c0.5-0.5,0.5-1.3,0-1.8c-0.5-0.5-1.3-0.5-1.8,0l-2.8,2.8c-2.9-2.1-6.9-2.1-9.8,0L34.8,33c-0.5-0.5-1.3-0.5-1.8,0c-0.5,0.5-0.5,1.3,0,1.8l2.8,2.8c-2.1,2.9-2.1,6.9,0,9.8L33,50.2c-0.5,0.5-0.5,1.3,0,1.8c0.3,0.3,0.6,0.4,0.9,0.4c0.3,0,0.7-0.1,0.9-0.4l2.8-2.8c1.5,1.1,3.2,1.6,4.9,1.6c1.7,0,3.4-0.6,4.9-1.6l2.8,2.8c0.3,0.3,0.6,0.4,0.9,0.4c0.3,0,0.7-0.1,0.9-0.4c0.5-0.5,0.5-1.3,0-1.8L49.2,47.4z"/>
	<path d="M42.5,0C19,0,0,19,0,42.5S19,85,42.5,85S85,66,85,42.5S66,0,42.5,0z M62.5,55.6c0,3.8-3.1,6.9-6.9,6.9H29.4c-3.8,0-6.9-3.1-6.9-6.9V29.4c0-3.8,3.1-6.9,6.9-6.9h26.2c3.8,0,6.9,3.1,6.9,6.9V55.6z"/>
	<path d="M41.4,36c-1.5,0-3,0.6-4.1,1.7c-2.2,2.2-2.2,5.9,0,8.2c2.2,2.2,5.9,2.2,8.2,0c2.2-2.2,2.2-5.9,0-8.2C44.4,36.6,42.9,36,41.4,36z"/>
</svg>