<?xml version="1.0" encoding="UTF-8"?>
<!--https://github.com/muchdogesec/stix2icons/-->
<svg width="200" height="200" xmlns="http://www.w3.org/2000/svg" viewBox="0 0 85 85" id="email-addr">
	<ellipse cx="42.5" cy="42.6" rx="5" ry="5"/>
	<path d="M42.5,0C19,0,0,19,0,42.5S19,85,42.5,85S85,66,85,42.5S66,0,42.5,0z M64,49.2c-0.7,2.1-2.2,3.9-4.2,4.9c-4.1,2.1-9.2,0.5-11.3-3.6c-1.7,1.3-3.8,2-6,2c-5.5,0-10-4.5-10-10c0-5.5,4.5-10,10-10c1.8,0,3.6,0.5,5.2,1.5c0.4-0.9,1.3-1.5,2.3-1.5c1.4,0,2.5,1.1,2.5,2.5v11.6c0,0.9,0.4,1.8,1,2.4c0.7,0.6,1.5,1,2.5,1c1.5,0,2.8-0.9,3.2-2.3c0.8-2.6,1-5.3,0.6-8c-1.4-8.7-9-15-17.8-14.8c-9.7,0.3-17.3,8.3-17,18c0.3,9,7.4,16.4,16.4,17.1c2.6,0.2,5.2-0.3,7.7-1.2c0,0,0.1,0,0.1-0.1c1.3-0.5,2.7,0.2,3.2,1.5c0.5,1.3-0.2,2.7-1.5,3.2c-2.7,1.1-5.5,1.6-8.4,1.6c-0.5,0-1,0-1.4,0c-11.6-0.8-20.8-10.3-21.1-22c-0.3-11.3,7.9-21.1,19-22.8c12.3-1.9,23.8,6.5,25.7,18.8C65.3,42.4,65,45.9,64,49.2z"/>
</svg>