<?xml version="1.0" encoding="UTF-8"?>
<!--https://github.com/muchdogesec/stix2icons/-->
<svg xmlns="http://www.w3.org/2000/svg" viewBox="0 0 85 85" id="software">
	<path d="M42.5,0C19,0,0,19,0,42.5S19,85,42.5,85S85,66,85,42.5S66,0,42.5,0z M39.5,60c0,2.7-2.2,5-5,5H25c-2.7,0-5-2.2-5-5v-9.6c0-2.7,2.2-5,5-5h9.6c2.7,0,5,2.2,5,5V60z M39.5,34.5c0,2.7-2.2,5-5,5H25c-2.7,0-5-2.2-5-5V25c0-2.7,2.2-5,5-5h9.6c2.7,0,5,2.2,5,5V34.5z M55.2,65c-5.4,0-9.8-4.4-9.8-9.8s4.4-9.8,9.8-9.8s9.8,4.4,9.8,9.8S60.6,65,55.2,65z M65,34.5c0,2.7-2.2,5-5,5h-9.6c-2.7,0-5-2.2-5-5V25c0-2.7,2.2-5,5-5H60c2.7,0,5,2.2,5,5V34.5z"/>
</svg>