<?xml version="1.0" encoding="UTF-8"?>
<!--https://github.com/muchdogesec/stix2icons/-->
<svg width="200" height="200" xmlns="http://www.w3.org/2000/svg" viewBox="0 0 85 85" id="url">
	<path d="M46.2,38.8c-0.7-0.2-1.4,0.2-1.6,0.9l-0.7,2.7l-1.1-2.7c-0.2-0.4-0.5-0.7-0.9-0.9c-0.8-0.3-1.8,0-2.2,0.9l-1.1,2.7l-0.7-2.7c0,0,0,0,0-0.1c-0.2-0.7-0.9-1.1-1.6-0.9c-0.7,0.2-1.1,0.9-0.9,1.6l1.3,4.7c0.2,0.7,0.9,1.2,1.6,1.2h0.1c0.7,0,1.3-0.4,1.5-1l1.3-3.2l1.4,3.2c0.3,0.6,0.9,1,1.5,1h0.1c0.7,0,1.4-0.5,1.6-1.2l1.3-4.7v0c0,0,0,0,0,0C47.3,39.7,46.9,39,46.2,38.8z"/>
	<path d="M33.7,38.8c-0.7-0.2-1.4,0.3-1.6,0.9l-0.7,2.7l-1.1-2.7c-0.2-0.4-0.5-0.7-0.9-0.9c-0.8-0.3-1.8,0-2.2,0.9l-1.1,2.7l-0.7-2.7c-0.2-0.6-0.7-1-1.2-1c-0.1,0-0.2,0-0.4,0c-0.7,0.2-1.1,0.9-0.9,1.6l1.3,4.7c0.2,0.7,0.9,1.2,1.6,1.2h0.1c0.7,0,1.3-0.4,1.5-1l1.3-3.2l1.4,3.2c0.3,0.6,0.9,1,1.5,1h0.1c0.7,0,1.4-0.5,1.6-1.2l1.3-4.7v0c0,0,0,0,0-0.1C34.8,39.6,34.4,38.9,33.7,38.8z"/>
	<path d="M58.7,38.8c-0.7-0.2-1.4,0.3-1.6,0.9l-0.7,2.7l-1.1-2.7c-0.2-0.4-0.5-0.7-0.9-0.9c-0.8-0.3-1.8,0-2.2,0.9l-1.1,2.7l-0.7-2.7c0,0,0,0,0-0.1c-0.2-0.7-0.9-1.1-1.6-0.9c-0.7,0.2-1.1,0.9-0.9,1.6l1.3,4.7c0.2,0.7,0.9,1.2,1.6,1.2h0.1c0.7,0,1.3-0.4,1.5-1l1.3-3.2l1.4,3.2c0.3,0.6,0.9,1,1.5,1h0.1c0.7,0,1.4-0.5,1.6-1.2l1.3-4.7c0,0,0,0,0-0.1C59.8,39.6,59.4,38.9,58.7,38.8z"/>
	<path d="M61.1,43.1c-0.8,0-1.5,0.7-1.5,1.5s0.7,1.5,1.5,1.5h0c0.8,0,1.5-0.7,1.5-1.5C62.6,43.7,61.9,43.1,61.1,43.1z"/>
	<path d="M42.5,0C19,0,0,19,0,42.5S19,85,42.5,85S85,66,85,42.5S66,0,42.5,0z M67,49.1L67,49.1c-0.5,3.2-3.3,6.1-6.4,6.7h0c-1.7,0.3-16.1,0.5-18,0.5c-2,0-16.3-0.2-18.1-0.5h0c-3.1-0.6-5.9-3.4-6.4-6.7v0c-0.3-2.2-0.5-4.4-0.5-6.6c0-2.2,0.2-4.4,0.5-6.6v0c0.6-3.2,3.3-6.1,6.4-6.7h0c1.7-0.3,16.1-0.5,18-0.5c2,0,16.3,0.2,18.1,0.5h0c3.1,0.6,5.9,3.4,6.4,6.7v0c0.3,2.2,0.5,4.4,0.5,6.6C67.5,44.7,67.3,46.9,67,49.1z"/>
</svg>