<?xml version="1.0" encoding="UTF-8"?>
<!--https://github.com/muchdogesec/stix2icons/-->
<svg width="200" height="200" xmlns="http://www.w3.org/2000/svg" viewBox="0 0 85 85" id="x509-certificate">
	<path d="M42.5,0C19,0,0,19,0,42.5S19,85,42.5,85S85,66,85,42.5S66,0,42.5,0z M63.3,46.9l-2,2.1c-0.6,0.6-0.9,1.4-0.9,2.2l-0.1,2.9c-0.1,3.4-2.8,6.1-6.2,6.2l-2.9,0.1c-0.8,0-1.6,0.4-2.2,0.9l-2.1,2c-2.5,2.3-6.3,2.3-8.7,0l-2.1-2c-0.6-0.6-1.4-0.9-2.2-0.9l-2.9-0.1c-3.4-0.1-6.1-2.8-6.2-6.2l-0.1-2.9c0-0.8-0.4-1.6-0.9-2.2l-2-2.1c-2.3-2.5-2.3-6.3,0-8.7l2-2.1c0.6-0.6,0.9-1.4,0.9-2.2l0.1-2.9c0.1-3.4,2.8-6.1,6.2-6.2l2.9-0.1c0.8,0,1.6-0.4,2.2-0.9l2.1-2c2.5-2.3,6.3-2.3,8.7,0l2.1,2c0.6,0.6,1.4,0.9,2.2,0.9l2.9,0.1c3.4,0.1,6.1,2.8,6.2,6.2l0.1,2.9c0,0.8,0.4,1.6,0.9,2.2l2,2.1C65.6,40.6,65.6,44.4,63.3,46.9z"/>
	<path d="M49.7,35.5L39.5,46.3l-4.2-4.5c-0.6-0.6-1.5-0.6-2.1-0.1c-0.6,0.6-0.6,1.5-0.1,2.1l5.3,5.6c0.3,0.3,0.7,0.5,1.1,0.5s0.8-0.2,1.1-0.5l11.2-12c0.6-0.6,0.5-1.6-0.1-2.1C51.2,34.8,50.2,34.9,49.7,35.5z"/>
</svg>