<?xml version="1.0" encoding="UTF-8"?>
<!--https://github.com/muchdogesec/stix2icons/-->
<svg width="200" height="200" xmlns="http://www.w3.org/2000/svg" viewBox="0 0 85 85" id="weakness">
	<path style="fill:rgb(94,49,128)" d="M42.5,0C19,0,0,19,0,42.5S19,85,42.5,85S85,66,85,42.5S66,0,42.5,0z M33.9,24c0.1-0.2,0.3-0.3,0.5-0.3l2.2-0.3c0.2,0,0.4,0,0.6,0.2c0.2,0.1,0.2,0.3,0.2,0.5l-0.1,7.5c0,0.3-0.3,0.6-0.6,0.7c0,0-0.1,0-0.1,0c-0.3,0-0.6-0.2-0.7-0.5l-2.1-7.2C33.7,24.4,33.8,24.2,33.9,24z M23.7,34.3c0-0.2,0.1-0.4,0.3-0.5c0.2-0.1,0.4-0.1,0.6-0.1l7.2,2.1c0.3,0.1,0.5,0.4,0.5,0.8c0,0.3-0.3,0.6-0.7,0.6l-7.5,0.1c0,0,0,0,0,0c-0.2,0-0.4-0.1-0.5-0.2c-0.1-0.2-0.2-0.4-0.2-0.6L23.7,34.3z M45.6,55.6l-6.1,6.1c-2.2,2.2-5,3.3-8.1,3.3s-5.9-1.2-8.1-3.3c-2.2-2.2-3.3-5-3.3-8.1s1.2-5.9,3.3-8.1l6.1-6.1c0.1-0.1,0.3-0.2,0.6-0.2l6.2,0.6c0.3,0,0.5,0.2,0.6,0.5c0.1,0.3,0,0.5-0.2,0.7l-8.9,8.9c-2,2-2,5.3,0,7.4c1,1,2.3,1.5,3.7,1.5s2.7-0.5,3.7-1.5l8.9-8.9c0.2-0.2,0.5-0.3,0.7-0.2c0.3,0.1,0.4,0.3,0.5,0.6l0.6,6.2C45.8,55.2,45.7,55.4,45.6,55.6z M51.1,61c-0.1,0.2-0.3,0.3-0.5,0.3l-2.2,0.3c0,0-0.1,0-0.1,0c-0.2,0-0.3-0.1-0.5-0.2c-0.2-0.1-0.2-0.3-0.2-0.5l0.1-7.5c0-0.3,0.3-0.6,0.6-0.7c0.3,0,0.7,0.2,0.8,0.5l2.1,7.2C51.3,60.6,51.2,60.8,51.1,61z M61.3,50.7c0,0.2-0.1,0.4-0.3,0.5c-0.1,0.1-0.2,0.1-0.4,0.1c-0.1,0-0.1,0-0.2,0l-7.2-2.1c-0.3-0.1-0.5-0.4-0.5-0.8c0-0.3,0.3-0.6,0.7-0.6l7.5-0.1c0.2,0,0.4,0.1,0.5,0.2c0.1,0.1,0.2,0.4,0.2,0.6L61.3,50.7z M61.7,39.5l-6.1,6.1c-0.1,0.1-0.3,0.2-0.5,0.2c0,0,0,0-0.1,0l-6.2-0.6c-0.3,0-0.5-0.2-0.6-0.5c-0.1-0.3,0-0.5,0.2-0.7l8.9-8.9c2-2,2-5.3,0-7.4c-1-1-2.3-1.5-3.7-1.5c-1.4,0-2.7,0.5-3.7,1.5L41,36.6c-0.2,0.2-0.5,0.3-0.7,0.2c-0.3-0.1-0.4-0.3-0.5-0.6L39.2,30c0-0.2,0.1-0.4,0.2-0.6l6.1-6.1c2.2-2.2,5-3.3,8.1-3.3c3.1,0,5.9,1.2,8.1,3.3v0C66.1,27.8,66.1,35,61.7,39.5z"/>
</svg>