<?xml version="1.0" encoding="UTF-8"?>
<svg xmlns="http://www.w3.org/2000/svg" width="200" height="200" viewBox="0 0 85 85" id="attack-flow" data-type="round">
  <path d="M42.5,0C19.04,0,0,19.04,0,42.5s19.04,42.5,42.5,42.5s42.5-19.04,42.5-42.5S65.96,0,42.5,0z M65.1525,58.3525c-3.1875,0-4.8875-1.7-6.12-2.9325  c-1.105-1.105-1.6575-1.615-2.9325-1.615s-1.8275,0.51-2.9325,1.615c-1.2325,1.2325-2.9325,2.9325-6.1625,2.9325c-3.1875,0-4.8875-1.7-6.12-2.9325c-1.105-1.105-1.6575-1.615-2.9325-1.615  c-1.275,0-1.8275,0.51-2.9325,1.615c-1.2325,1.2325-2.9325,2.9325-6.12,2.9325c-3.1875,0-4.8875-1.7-6.12-2.9325c-1.105-1.105-1.6575-1.615-2.9325-1.615V49.3c3.1875,0,4.8875,1.7,6.12,2.9325  c1.105,1.105,1.6575,1.615,2.9325,1.615s1.8275-0.51,2.9325-1.615c1.2325-1.2325,2.9325-2.9325,6.12-2.9325c3.1875,0,4.8875,1.7,6.12,2.9325c1.105,1.105,1.6575,1.615,2.9325,1.615  c1.275,0,1.8275-0.51,2.9325-1.615c1.2325-1.2325,2.9325-2.9325,6.12-2.9325c3.23,0,4.8875,1.7,6.1625,2.9325c1.105,1.105,1.6575,1.615,2.9325,1.615V58.3525z M65.1525,47.0475  c-3.1875,0-4.8875-1.7-6.12-2.9325c-1.105-1.105-1.6575-1.615-2.9325-1.615s-1.8275,0.51-2.9325,1.615c-1.2325,1.2325-2.9325,2.9325-6.1625,2.9325c-3.1875,0-4.8875-1.7-6.12-2.9325  c-1.105-1.105-1.6575-1.615-2.9325-1.615c-1.275,0-1.8275,0.51-2.9325,1.615c-1.2325,1.2325-2.9325,2.9325-6.12,2.9325c-3.1875,0-4.8875-1.7-6.12-2.9325c-1.105-1.105-1.6575-1.615-2.9325-1.615V37.9525  c3.1875,0,4.8875,1.7,6.12,2.9325c1.105,1.105,1.6575,1.615,2.9325,1.615s1.8275-0.51,2.9325-1.615c1.2325-1.2325,2.9325-2.9325,6.12-2.9325c3.1875,0,4.8875,1.7,6.12,2.9325  c1.105,1.105,1.6575,1.615,2.9325,1.615c1.275,0,1.8275-0.51,2.9325-1.615c1.2325-1.2325,2.9325-2.9325,6.12-2.9325c3.23,0,4.8875,1.7,6.1625,2.9325c1.105,1.105,1.6575,1.615,2.9325,1.615V47.0475z   M65.1525,35.7c-3.1875,0-4.8875-1.7-6.12-2.9325c-1.105-1.105-1.6575-1.615-2.9325-1.615s-1.8275,0.51-2.9325,1.615c-1.2325,1.2325-2.9325,2.9325-6.1625,2.9325c-3.1875,0-4.8875-1.7-6.12-2.9325  c-1.105-1.105-1.6575-1.615-2.9325-1.615c-1.275,0-1.8275,0.51-2.9325,1.615C33.7875,34,32.0875,35.7,28.9,35.7c-3.1875,0-4.8875-1.7-6.12-2.9325c-1.105-1.105-1.6575-1.615-2.9325-1.615V26.6475  c3.1875,0,4.8875,1.7,6.12,2.9325c1.105,1.105,1.6575,1.615,2.9325,1.615s1.8275-0.51,2.9325-1.615c1.2325-1.2325,2.9325-2.9325,6.12-2.9325c3.1875,0,4.8875,1.7,6.12,2.9325  c1.105,1.105,1.6575,1.615,2.9325,1.615c1.275,0,1.8275-0.51,2.9325-1.615c1.2325-1.2325,2.9325-2.9325,6.12-2.9325c3.23,0,4.8875,1.7,6.1625,2.9325c1.105,1.105,1.6575,1.615,2.9325,1.615V35.7z"/>
</svg>