<?xml version="1.0" encoding="UTF-8"?>
<!--https://github.com/muchdogesec/stix2icons/-->
<svg xmlns="http://www.w3.org/2000/svg" viewBox="0 0 85 85" id="marking-definition">
	<path style="fill:rgb(255,255,255)" d="M42.5,0C19,0,0,19,0,42.5S19,85,42.5,85S85,66,85,42.5S66,0,42.5,0z M39,29.7c0,1.1-0.9,2-2,2c-4,0-6.2,4.1-6.5,12.3H37c1.1,0,2,0.9,2,2v17.6c0,1.1-0.9,2-2,2H19.5c-1.1,0-2-0.9-2-2V46.1c0-3.9,0.4-7.5,1.2-10.7c0.8-3.3,2-6.1,3.6-8.5c1.7-2.4,3.7-4.3,6.2-5.6c2.5-1.3,5.3-2,8.5-2c1.1,0,2,0.9,2,2V29.7z M67.5,29.7c0,1.1-0.9,2-2,2c-4,0-6.1,4.1-6.4,12.3h6.4c1.1,0,2,0.9,2,2v17.6c0,1.1-0.9,2-2,2H48c-1.1,0-2-0.9-2-2V46.1c0-3.9,0.4-7.5,1.2-10.7c0.8-3.3,2-6.1,3.6-8.5c1.7-2.4,3.7-4.3,6.2-5.6c2.5-1.3,5.3-2,8.5-2c1.1,0,2,0.9,2,2V29.7z"/>
</svg>