<?xml version="1.0" encoding="UTF-8"?>
<!--https://github.com/muchdogesec/stix2icons/-->
<svg xmlns="http://www.w3.org/2000/svg" viewBox="0 0 85 85" id="artifact">
	<path style="fill:rgb(255,255,255)" d="M42.5,0C19,0,0,19,0,42.5C0,66,19,85,42.5,85S85,66,85,42.5C85,19,66,0,42.5,0z M34.2,50.9c1,1.2,0.9,2.9-0.2,4c-0.5,0.5-1.2,0.7-1.9,0.7c-0.8,0-1.6-0.3-2.1-0.9l-9.3-10.3c-1-1.1-1-2.7,0-3.8L30,30.3c0.5-0.6,1.2-0.9,1.9-0.9c0.7,0,1.5,0.2,2,0.7v0c1.2,1,1.2,2.8,0.2,4l-7.6,8.4L34.2,50.9z M49.5,25.8L41,60.5c-0.3,1.3-1.4,2.1-2.7,2.1c-0.2,0-0.5,0-0.7-0.1c-1.5-0.4-2.4-1.9-2.1-3.4L44,24.5c0.4-1.5,1.9-2.4,3.4-2.1l0,0C48.9,22.8,49.9,24.3,49.5,25.8z M64.3,44.4L55,54.7c-0.5,0.6-1.3,0.9-2.1,0.9c-0.7,0-1.4-0.3-1.9-0.7c-1.2-1-1.2-2.8-0.2-4l7.6-8.4l-7.6-8.4c-1-1.2-0.9-2.9,0.2-4c1.2-1,2.9-0.9,4,0.2l9.3,10.3C65.2,41.7,65.2,43.3,64.3,44.4z"/>
</svg>