<?xml version="1.0" encoding="UTF-8"?>
<!--https://github.com/muchdogesec/stix2icons/-->
<svg xmlns="http://www.w3.org/2000/svg" viewBox="0 0 85 85" id="cryptocurrency-wallet">
	<path style="fill:rgb(255,255,255)" d="M57.9,45c-1.5,0-2.7,1.2-2.7,2.7s1.2,2.7,2.7,2.7c1.5,0,2.7-1.2,2.7-2.7S59.4,45,57.9,45z"/>
	<path style="fill:rgb(255,255,255)" d="M42.5,0C19,0,0,19,0,42.5S19,85,42.5,85S85,66,85,42.5S66,0,42.5,0z M65.7,60.7c0,1.5-1.3,2.8-2.8,2.8H23.5c-1.5,0-2.8-1.3-2.8-2.8V29.2c0-1.3,0.9-2.4,2.2-2.7l30.2-6.8c0.8-0.2,1.7,0,2.4,0.5c0.7,0.5,1.1,1.3,1.1,2.2v6H28.3c-0.9,0-1.6,0.7-1.6,1.6s0.7,1.6,1.6,1.6h34.6c1.5,0,2.8,1.3,2.8,2.8V60.7z"/>
</svg>