<?xml version="1.0" encoding="UTF-8"?>
<!--https://github.com/muchdogesec/stix2icons/-->
<svg xmlns="http://www.w3.org/2000/svg" viewBox="0 0 85 85" id="cryptocurrency-transaction">
	<path style="fill:rgb(255,255,255)" d="M42.5,0C19,0,0,19,0,42.5S19,85,42.5,85S85,66,85,42.5S66,0,42.5,0z M20.2,36.9C20.2,36.9,20.2,36.9,20.2,36.9c0-1.1,0.9-1.9,1.9-1.9h36.5l-7-7c-0.8-0.8-0.8-2,0-2.7c0.8-0.8,2-0.8,2.7,0l10.3,10.3c0.6,0.6,0.7,1.4,0.4,2.1c-0.3,0.7-1,1.2-1.8,1.2H22.1C21,38.8,20.2,38,20.2,36.9C20.2,36.9,20.2,36.9,20.2,36.9L20.2,36.9z M63.2,49.1H26.8l7,7c0.8,0.8,0.8,2,0,2.7c-0.4,0.4-0.9,0.6-1.4,0.6c-0.5,0-1-0.2-1.4-0.6L20.7,48.6c-0.6-0.6-0.7-1.4-0.4-2.1c0.3-0.7,1-1.2,1.8-1.2h41.1l0,0c1.1,0,1.9,0.9,1.9,1.9S64.3,49.1,63.2,49.1z"/>
</svg>