<?xml version="1.0" encoding="UTF-8"?>
<!--https://github.com/muchdogesec/stix2icons/-->
<svg xmlns="http://www.w3.org/2000/svg" viewBox="0 0 85 85" id="email-message">
	<path style="fill:rgb(255,255,255)" d="M42.5,0C19,0,0,19,0,42.5S19,85,42.5,85S85,66,85,42.5S66,0,42.5,0z M24,26.7H61c0.6,0,1.1,0.1,1.6,0.4L48.2,41.6c0,0,0,0,0,0c0,0,0,0,0,0l-4.7,4.7c-0.5,0.5-1.5,0.5-2,0l-4.7-4.7c0,0,0,0,0,0s0,0,0,0L22.3,27.1C22.8,26.8,23.4,26.7,24,26.7zM20,54.4V30.6c0-0.6,0.2-1.2,0.4-1.7L34,42.5L20.4,56.1C20.2,55.6,20,55,20,54.4z M61,58.3H24c-0.6,0-1.1-0.1-1.7-0.4l13.5-13.6l3.8,3.8c1.6,1.6,4.3,1.5,5.8,0l3.8-3.8l13.5,13.6C62.2,58.2,61.6,58.3,61,58.3zM65,54.4c0,0.6-0.2,1.2-0.4,1.7L51,42.5l13.6-13.6c0.3,0.5,0.4,1.1,0.4,1.7V54.4z"/>
</svg>