<?xml version="1.0" encoding="UTF-8"?>
<!--https://github.com/muchdogesec/stix2icons/-->
<svg xmlns="http://www.w3.org/2000/svg" viewBox="0 0 85 85" id="phone-number">
	<path style="fill:rgb(255,255,255)" d="M42.5,0C19,0,0,19,0,42.5S19,85,42.5,85S85,66,85,42.5S66,0,42.5,0z M53.7,65C53.6,65,44,64.9,32,53C20.1,41,20,31.4,20,31.3C20,29.7,27.4,20,30,20c1,0.1,2,0.6,2.6,1.5c0.1,0.1,6.5,9.1,6.1,11.5c-0.2,1.2-1,1.8-2.6,3.2c-0.3,0.2-0.9,0.7-1.3,1.1c0.3,0.8,0.6,1.7,1,2.5c2,4.1,5.3,7.5,9.5,9.5c0.8,0.4,1.6,0.7,2.5,1c0.4-0.4,0.9-1.1,1.1-1.3c1.3-1.6,2-2.4,3.2-2.6c2.5-0.5,11.4,6,11.5,6.1c0.8,0.6,1.4,1.5,1.4,2.5C65,57.6,55.3,65,53.7,65z"/>
</svg>