<?xml version="1.0" encoding="UTF-8"?>
<!--https://github.com/muchdogesec/stix2icons/-->
<svg xmlns="http://www.w3.org/2000/svg" viewBox="0 0 85 85" id="windows-registry-key">
	<path style="fill:rgb(255,255,255)" d="M42.5,0C19,0,0,19,0,42.5S19,85,42.5,85S85,66,85,42.5S66,0,42.5,0z M29,61.7L20.6,58c-0.4-0.2-0.6-0.5-0.6-0.9v-9.3l9,4.4V61.7z M22,45.4l8.5-3.8l8.5,3.8l-8.5,4.1L22,45.4z M41,57.7l-9,4v-9.6l9-4.4V57.7z M41,43.1l-9-4v-10l9,4.4V43.1z M34.1,26.8l7.6-3.3c0.5-0.2,1.1-0.2,1.7,0l7.6,3.4l-8.4,4L34.1,26.8z M44,33.5l9-4.3V39l-5,2.2l-4,1.8V33.5z M53,61.7l-9-4l0-10l9,4.4V61.7zM46,45.4l8.5-3.8l8.5,3.9l-8.5,4L46,45.4z M65,56.9c0,0.5-0.3,0.9-0.7,1.1L56,61.7v-9.5l9-4.3V56.9z"/>
</svg>