<?xml version="1.0" encoding="UTF-8"?>
<!--https://github.com/muchdogesec/stix2icons/-->
<svg width="200" height="200" xmlns="http://www.w3.org/2000/svg" viewBox="0 0 85 85" id="network-traffic">
	<path style="fill:rgb(0,0,0)" d="M42.5,0C19,0,0,19,0,42.5S19,85,42.5,85S85,66,85,42.5S66,0,42.5,0z M63.1,44.4H44.4v3.8h2.4c2.3,0,4.2,1.9,4.2,4.2v8.5c0,2.3-1.9,4.2-4.2,4.2h-8.5c-2.3,0-4.2-1.9-4.2-4.2v-8.5c0-2.3,1.9-4.2,4.2-4.2h2.4v-3.8H21.9c-1,0-1.9-0.8-1.9-1.9s0.8-1.9,1.9-1.9h5.3v-3.8h-2.4c-2.3,0-4.2-1.9-4.2-4.2v-8.5c0-2.3,1.9-4.2,4.2-4.2h8.5c2.3,0,4.2,1.9,4.2,4.2v8.5c0,2.3-1.9,4.2-4.2,4.2h-2.4v3.8h23.2v-3.8h-2.4c-2.3,0-4.2-1.9-4.2-4.2v-8.5c0-2.3,1.9-4.2,4.2-4.2h8.6c2.3,0,4.2,1.9,4.2,4.2v8.5c0,2.3-1.9,4.2-4.2,4.2h-2.4v3.8h5.3c1,0,1.9,0.8,1.9,1.9S64.2,44.4,63.1,44.4z"/>
</svg>