<?xml version="1.0" encoding="UTF-8"?>
<!--https://github.com/muchdogesec/stix2icons/-->
<svg xmlns="http://www.w3.org/2000/svg" viewBox="0 0 85 85" id="process">
	<path style="fill:rgb(0,0,0)" d="M42.5,0C19,0,0,19,0,42.5S19,85,42.5,85S85,66,85,42.5S66,0,42.5,0z M65,44.6c0,3.2-2.6,5.8-5.8,5.8h-4.2c-3.2,0-5.8-2.6-5.8-5.8v-0.5H34.1c-1.2,0-2.4,0.5-3.3,1.4c-0.9,0.9-1.4,2.1-1.4,3.3v0.5h0.5c3.2,0,5.8,2.6,5.8,5.8v0.5H45l-1.5-1.5c-0.6-0.6-0.6-1.6,0-2.2c0.6-0.6,1.6-0.6,2.2,0l4.2,4.2c0.1,0.1,0.2,0.2,0.2,0.3c0,0,0,0.1,0,0.1c0.1,0.1,0.1,0.2,0.1,0.4c0,0,0,0,0,0c0,0.1,0,0.3,0,0.4c0,0,0,0.1,0,0.1c0,0.1,0,0.3-0.1,0.4c0,0,0,0,0,0c0,0,0,0,0,0c0,0.1-0.1,0.2-0.2,0.3c0,0,0,0.1-0.1,0.1c0,0,0,0-0.1,0.1l-4.2,4.2c-0.6,0.6-1.6,0.6-2.2,0c-0.6-0.6-0.6-1.6,0-2.2l1.5-1.5h-9.3v0.5c0,3.2-2.6,5.8-5.8,5.8h-4.2c-3.2,0-5.8-2.6-5.8-5.8v-4.2c0-3.2,2.6-5.8,5.8-5.8h0.5v-0.5c0-2.1,0.8-4.1,2.3-5.6c1.5-1.5,3.5-2.3,5.6-2.3h15.2v-0.5c0-3.2,2.6-5.8,5.8-5.8h0.5v-0.5c0-1.2-0.5-2.4-1.4-3.3s-2.1-1.4-3.3-1.4H35.7v0.5c0,3.2-2.6,5.8-5.8,5.8h-4.2c-3.2,0-5.8-2.6-5.8-5.8v-4.2c0-3.2,2.6-5.8,5.8-5.8h4.2c3.2,0,5.8,2.6,5.8,5.8v0.5h15.2c2.1,0,4.1,0.8,5.6,2.3c1.5,1.5,2.3,3.5,2.3,5.6c0,0.2,0,0.4,0,0.5h0.5c3.2,0,5.8,2.6,5.8,5.8V44.6z"/>
</svg>