<?xml version="1.0" encoding="UTF-8"?>
<!--https://github.com/muchdogesec/stix2icons/-->
<svg width="200" height="200" xmlns="http://www.w3.org/2000/svg" viewBox="0 0 85 85" id="user-account">
	<path style="fill:rgb(0,0,0)" d="M42.5,0C19,0,0,19,0,42.5S19,85,42.5,85S85,66,85,42.5S66,0,42.5,0z M34,21.9c2.2-2.2,5-3.4,8.2-3.4c3.2,0,5.9,1.1,8.2,3.4c2.2,2.2,3.4,5,3.4,8.2c0,3.2-1.1,5.9-3.4,8.2c-2.2,2.2-5,3.4-8.2,3.4c-3.2,0-5.9-1.1-8.2-3.4c-2.2-2.2-3.4-5-3.4-8.2C30.6,26.9,31.8,24.2,34,21.9z M60.1,64.2c-1.5,1.5-3.6,2.2-6.1,2.2H31c-2.5,0-4.5-0.7-6.1-2.2c-1.6-1.5-2.4-3.5-2.4-6c0-1,0-1.9,0.1-2.8c0.1-0.9,0.2-2,0.4-3c0.2-1.1,0.4-2.1,0.7-3c0.3-1,0.7-1.9,1.3-2.8c0.5-1,1.2-1.8,1.9-2.5c0.7-0.7,1.7-1.3,2.7-1.7c1.1-0.4,2.2-0.6,3.5-0.6c0.5,0,1,0.2,1.9,0.8c0.6,0.4,1.2,0.8,2,1.3c0.6,0.4,1.5,0.8,2.5,1.1c1,0.3,2.1,0.5,3.1,0.5s2.1-0.2,3.1-0.5c1.1-0.3,1.9-0.7,2.5-1.1c0.7-0.5,1.4-0.9,2-1.3c0.9-0.6,1.4-0.8,1.9-0.8c1.2,0,2.4,0.2,3.5,0.6c1.1,0.4,2,1,2.7,1.7c0.7,0.7,1.3,1.5,1.9,2.5c0.5,0.9,0.9,1.9,1.3,2.8c0.3,0.9,0.6,2,0.7,3c0.2,1.1,0.3,2.1,0.4,3c0.1,0.9,0.1,1.9,0.1,2.8C62.5,60.7,61.7,62.8,60.1,64.2z"/>
</svg>