<?xml version="1.0" encoding="UTF-8"?>
<!--https://github.com/muchdogesec/stix2icons/-->
<svg width="200" height="200" xmlns="http://www.w3.org/2000/svg" viewBox="0 0 85 85" id="autonomous-system">
	<path style="fill:rgb(161,248,128)" d="M32.1,29c-1.6,0-3.1,1.4-3.1,3.1s1.4,3.1,3.1,3.1s3.1-1.4,3.1-3.1S33.7,29,32.1,29z"/>
	<path style="fill:rgb(161,248,128)" d="M42.5,0C19,0,0,19,0,42.5S19,85,42.5,85S85,66,85,42.5S66,0,42.5,0z M62.9,53.2l-10,10C51,65,48.8,66,46.2,66c-2.6,0-4.9-1-6.7-2.9L25,48.7l-0.2-0.2c-1.2-1.2-2-2-2.9-3.1c-0.6-0.8-1-1.8-1.2-2.9c0.2-1.6,0.2-2.9,0.2-4.5v-0.2v-2c0-2.2,0-4.1,0.2-5.5s0.4-2.9,1-4.1c0.8-1.8,2.4-3.5,4.3-4.5c1.2-0.6,2.4-0.8,4.1-1H36h2h0.2c1.8,0,3.1,0,4.1,0.2c1,0.2,2,0.6,2.9,1.2c1,0.6,1.8,1.4,3.1,2.9l0.2,0.2l14.5,14.5c1.8,1.8,2.9,4.1,2.9,6.7C65.7,48.9,64.7,51.4,62.9,53.2z"/>
</svg>