<?xml version="1.0" encoding="UTF-8"?>
<!--https://github.com/muchdogesec/stix2icons/-->
<svg xmlns="http://www.w3.org/2000/svg" viewBox="0 0 85 85" id="bank-card">
	<path style="fill:rgb(145,178,181)" d="M25.3,49.1h4.5c0.5,0,1-0.4,1-1s-0.4-1-1-1h-4.5c-0.5,0-1,0.4-1,1S24.8,49.1,25.3,49.1z"/>
	<path style="fill:rgb(145,178,181)" d="M25.3,42.6h5.8c0.5,0,1-0.4,1-1v-4.2c0-0.5-0.4-1-1-1h-5.8c-0.5,0-1,0.4-1,1v4.2C24.4,42.2,24.8,42.6,25.3,42.6z"/>
	<path style="fill:rgb(145,178,181)" d="M34,49.1h4.5c0.5,0,1-0.4,1-1s-0.4-1-1-1H34c-0.5,0-1,0.4-1,1S33.5,49.1,34,49.1z"/>
	<path style="fill:rgb(145,178,181)" d="M47.2,47.2h-4.5c-0.5,0-1,0.4-1,1s0.4,1,1,1h4.5c0.5,0,1-0.4,1-1S47.7,47.2,47.2,47.2z"/>
	<path style="fill:rgb(145,178,181)" d="M41.3,51.5H25.3c-0.5,0-1,0.4-1,1s0.4,1,1,1h15.9c0.5,0,1-0.4,1-1S41.8,51.5,41.3,51.5z"/>
	<path style="fill:rgb(145,178,181)" d="M42.5,0C19,0,0,19,0,42.5S19,85,42.5,85S85,66,85,42.5S66,0,42.5,0z M65.2,54.5c0,1.8-1.5,3.3-3.3,3.3H23.5c-1.8,0-3.3-1.5-3.3-3.3V30.7c0-1.8,1.5-3.3,3.3-3.3h38.4c1.8,0,3.3,1.5,3.3,3.3V54.5z"/>
	<path style="fill:rgb(145,178,181)" d="M55.8,47.2h-4.5c-0.5,0-1,0.4-1,1s0.4,1,1,1h4.5c0.5,0,1-0.4,1-1S56.4,47.2,55.8,47.2z"/>
	<path style="fill:rgb(145,178,181)" d="M60,33H49.5c-0.5,0-1,0.4-1,1s0.4,1,1,1H60c0.5,0,1-0.4,1-1S60.5,33,60,33z"/>
</svg>