<?xml version="1.0" encoding="UTF-8"?>
<!--https://github.com/muchdogesec/stix2icons/-->
<svg xmlns="http://www.w3.org/2000/svg" viewBox="0 0 85 85" id="domain-name">
	<path style="fill:rgb(255,185,167)" d="M43.9,35.5c-2.7,0-4.9,2.7-4.9,6v1.9c0,3.3,2.2,6,4.9,6c2.7,0,4.9-2.7,4.9-6v-1.9C48.8,38.2,46.6,35.5,43.9,35.5zM45.6,44c0,1.5-0.8,2.7-1.7,2.7c-1,0-1.7-1.2-1.7-2.7v-2.5c0-1.5,0.8-2.7,1.7-2.7s1.7,1.2,1.7,2.7V44z"/>
	<path style="fill:rgb(255,185,167)" d="M31.4,39.4h3.3c0.9,0,1.6-0.9,1.6-2s-0.7-2-1.6-2h-3.3c-2.7,0-4.9,2.7-4.9,6v1.9c0,3.3,2.2,6,4.9,6h3.3c0.9,0,1.6-0.9,1.6-2s-0.7-2-1.6-2h-3.3c-1,0-1.7-0.9-1.7-2.1v-1.9C29.7,40.3,30.5,39.4,31.4,39.4z"/>
	<ellipse style="fill:rgb(255,185,167)" cx="23" cy="47.5" rx="1.6" ry="2"/>
	<path style="fill:rgb(255,185,167)" d="M42.5,0C19,0,0,19,0,42.5S19,85,42.5,85S85,66,85,42.5S66,0,42.5,0z M69,52H16V34.9c0-1.1,0.7-2,1.6-2h49.7c0.9,0,1.6,0.9,1.6,2V52z"/>
	<path style="fill:rgb(255,185,167)" d="M60.6,36l-3.2,3.7L54.2,36c-1-1.2-2.7-0.3-2.7,1.4v10.1c0,1.1,0.7,2,1.6,2s1.6-0.9,1.6-2V42l1.6,1.8c0.6,0.7,1.6,0.7,2.2,0l1.6-1.8v5.5c0,1.1,0.7,2,1.6,2s1.6-0.9,1.6-2V37.4C63.3,35.7,61.6,34.8,60.6,36z"/>
</svg>