<?xml version="1.0" encoding="UTF-8"?>
<!--https://github.com/muchdogesec/stix2icons/-->
<svg width="200" height="200" xmlns="http://www.w3.org/2000/svg" viewBox="0 0 85 85" id="mutex">
	<path style="fill:rgb(240,228,153)" d="M42.5,0C19,0,0,19,0,42.5S19,85,42.5,85S85,66,85,42.5S66,0,42.5,0z M62.5,63.6c0,0.9-0.3,1.7-1,2.4c-0.6,0.6-1.4,1-2.4,1H25.8c-0.9,0-1.7-0.3-2.4-1c-0.6-0.6-1-1.4-1-2.4v-20c0-0.9,0.3-1.7,1-2.4c0.6-0.6,1.4-1,2.4-1h1.1v-6.7c0-4.3,1.5-7.9,4.6-11c3.1-3.1,6.7-4.6,11-4.6c4.3,0,7.9,1.5,11,4.6c3.1,3.1,4.6,6.7,4.6,11v6.7h1.1c0.9,0,1.7,0.3,2.4,1c0.6,0.6,1,1.4,1,2.4V63.6z"/>
	<path style="fill:rgb(240,228,153)" d="M42.5,24.7c-2.5,0-4.5,0.9-6.3,2.6c-1.7,1.7-2.6,3.8-2.6,6.3v6.7h17.8v-6.7c0-2.5-0.9-4.5-2.6-6.3C47,25.6,45,24.7,42.5,24.7z"/>
</svg>