<?xml version="1.0" encoding="UTF-8"?>
<svg xmlns="http://www.w3.org/2000/svg" viewBox="0 0 85 85" id="sighting">
  <defs>
    <style>.bfb5e215-1b5f-42e8-8a11-fb79ab71e4ca{fill:none;}.be41e0ba-c7ef-4a2b-8dd0-abac06346290{fill-rule:evenodd;}</style>
  </defs>
  \1<style>.no-fill {fill:none;}</style>
<g class="no-fill">
    <g id="af28a525-7fa3-4af6-aa99-fe1600bde95d" data-name="Layer 1"><style>.colour-fill {fill:rgb(235,94,42);}</style>
<g class="colour-fill">
      <circle class="bfb5e215-1b5f-42e8-8a11-fb79ab71e4ca" cx="42.5" cy="42.5" r="42.5"/>
      <path class="be41e0ba-c7ef-4a2b-8dd0-abac06346290" d="M31.52,65.92l-12.4-45.8a3.26,3.26,0,1,1,6.3-1.7l.3,1.3c7.4-4,11.8-2.1,16,.4s7.9,5.3,14.3,3.4l1.6-.5a2.54,2.54,0,0,1,3.3,1.7l5.9,21.9a2.53,2.53,0,0,1-1.7,3.1l-1.6.5h-.2c-1.1.2-2.1.4-3.2.5-7,.5-11.8-2.8-16.1-4.6-3.3-1.4-6.5-2-10.5.1l-.6.3,4.8,17.7a3.26,3.26,0,0,1-2.3,4A3.16,3.16,0,0,1,31.52,65.92Z"/>
    </g>
  </g>
</svg>