<?xml version="1.0" encoding="UTF-8"?>
<svg xmlns="http://www.w3.org/2000/svg" viewBox="0 0 85 85" id="identity_system">
  <defs>
    <style>.df25e46a-39e3-4bbd-8345-5cbab1ec078b{fill:none;}.9f5e4980-43de-49f5-9da6-a9953c7f2a65{fill-rule:evenodd;}</style>
  </defs>
  <g id="867094f6-a40c-409b-9c29-c44be4a77ff1" data-name="Layer 2">
    <g id="a5e46392-ae42-4db9-b957-f50ea436e1e4" data-name="Layer 1">
      <circle class="df25e46a-39e3-4bbd-8345-5cbab1ec078b" cx="42.5" cy="42.5" r="42.5"/>
      <g id="fc721c5d-7b2d-48b0-ad51-61aee09cb20e" data-name="Inner Shapes">>
        <path class="9f5e4980-43de-49f5-9da6-a9953c7f2a65" d="m30.94,49.97c-1.75,0-3.17,1.42-3.17,3.17s1.42,3.17,3.17,3.17,3.17-1.42,3.17-3.17-1.42-3.17-3.17-3.17Z"/>
        <path class="9f5e4980-43de-49f5-9da6-a9953c7f2a65" d="m30.94,28.69c-1.75,0-3.17,1.42-3.17,3.17s1.42,3.17,3.17,3.17,3.17-1.42,3.17-3.17-1.42-3.17-3.17-3.17Z"/>
        <path class="9f5e4980-43de-49f5-9da6-a9953c7f2a65" d="m59.63,16H25.37c-5.14,0-9.37,4.23-9.37,9.37v34.26c0,5.14,4.23,9.37,9.37,9.37h34.26c5.14,0,9.37-4.23,9.37-9.37V25.37c0-5.14-4.23-9.37-9.37-9.37Zm2.3,43.68c0,1.24-1.01,2.25-2.25,2.25H25.32c-1.24,0-2.25-1.01-2.25-2.25v-13.07c0-1.24,1.01-2.25,2.25-2.25h34.36c1.24,0,2.25,1.01,2.25,2.25v13.07Zm0-21.29c0,1.24-1.01,2.25-2.25,2.25H25.32c-1.24,0-2.25-1.01-2.25-2.25v-13.07c0-1.24,1.01-2.25,2.25-2.25h34.36c1.24,0,2.25,1.01,2.25,2.25v13.07Z"/>
      </g>
    </g>
  </g>
</svg>