<?xml version="1.0" encoding="UTF-8"?>
<!--https://github.com/muchdogesec/stix2icons/-->
<svg width="200" height="200" xmlns="http://www.w3.org/2000/svg" viewBox="0 0 85 85" id="report">
  <path style="fill:rgb(0,0,0)" d="M52.3,38.31H32.7a2.43,2.43,0,0,0,0,4.85H52.3a2.43,2.43,0,0,0,0-4.85Z"/>
  <path style="fill:rgb(0,0,0)" d="M41.8,50.63h-9a2.42,2.42,0,0,0,0,4.84h9a2.42,2.42,0,0,0,0-4.84Z"/>
  <path style="fill:rgb(0,0,0)" d="M52.3,26H32.7a2.43,2.43,0,0,0,0,4.85H52.3a2.43,2.43,0,0,0,0-4.85Z"/>
  <path style="fill:rgb(0,0,0)" d="M42.5,0A42.5,42.5,0,1,0,85,42.5,42.5,42.5,0,0,0,42.5,0ZM65,69H27.5A7.5,7.5,0,0,1,20,61.53V16H57.5A7.44,7.44,0,0,1,65,23.47Z"/>
</svg>