<?xml version="1.0" encoding="UTF-8"?>
<!--https://github.com/muchdogesec/stix2icons/-->
<svg xmlns="http://www.w3.org/2000/svg" viewBox="0 0 85 85" id="extension-definition">
	<path style="fill:rgb(0,0,0)" d="M42.5,0C19,0,0,19,0,42.5S19,85,42.5,85S85,66,85,42.5S66,0,42.5,0z M36.3,62.2c0.8,0.8,0.2,2.1-0.9,2.2l-13.9,0.2c-0.7,0-1.3-0.6-1.3-1.3l0.2-13.9c0-1.1,1.4-1.7,2.2-0.9l3.9,3.9l6.4-6.4l6,6l-6.4,6.4L36.3,62.2z M32.8,38.9l-6.4-6.4l-3.9,3.9c-0.8,0.8-2.1,0.2-2.2-0.9l-0.2-13.9c0-0.7,0.6-1.3,1.3-1.3l13.9,0.2c1.1,0,1.7,1.4,0.9,2.2l-3.9,3.9l6.4,6.4L32.8,38.9zM63.9,64.7L50,64.5c-1.1,0-1.7-1.4-0.9-2.2l3.9-3.9L46.5,52l6-6l6.4,6.4l3.9-3.9c0.8-0.8,2.1-0.2,2.2,0.9l0.2,13.9C65.2,64.1,64.6,64.7,63.9,64.7z M65,35.5c0,1.1-1.4,1.7-2.2,0.9l-3.9-3.9L52.5,39l-6-6l6.4-6.4l-3.9-3.9c-0.8-0.8-0.2-2.1,0.9-2.2l13.9-0.2c0.7,0,1.3,0.6,1.3,1.3L65,35.5z"/>
</svg>