<?xml version="1.0" encoding="UTF-8"?>
<!--https://github.com/muchdogesec/stix2icons/-->
<svg xmlns="http://www.w3.org/2000/svg" viewBox="0 0 85 85" id="language-content">
	<path style="fill:rgb(0,0,0)" d="M61,40h-4v-1.3c0-0.7-0.6-1.3-1.3-1.3s-1.3,0.6-1.3,1.3V40h-4c-0.7,0-1.3,0.6-1.3,1.3s0.6,1.3,1.3,1.3h0.4c0.8,2.4,1.9,4.3,3.1,5.8c-1,0.9-1.9,1.6-2.9,2.4c-0.6,0.5-0.7,1.3-0.2,1.9c0.5,0.6,1.3,0.7,1.9,0.2c1.1-0.9,2.1-1.6,3.1-2.6c1.1,1,2.1,1.7,3.2,2.6c0.6,0.5,1.4,0.4,1.9-0.2c0.5-0.6,0.4-1.4-0.2-1.9c-1-0.8-2.1-1.5-3-2.4c1.2-1.5,2.4-3.4,3.2-5.8H61c0.7,0,1.3-0.6,1.3-1.3S61.8,40,61,40z M55.7,46.4c-0.8-1.1-1.6-2.3-2.2-3.8h4.4C57.4,44.1,56.5,45.4,55.7,46.4z"/>
	<path style="fill:rgb(0,0,0)" d="M34.6,30.5c-0.1-0.6-0.7-1.1-1.3-1.1h-2.7c-0.6,0-1.2,0.4-1.3,1.1l-2.6,13.2c-0.1,0.7,0.3,1.4,1,1.6c0.7,0.1,1.4-0.3,1.6-1L30,40h3.7l0.8,4.2c0.1,0.7,0.9,1.2,1.6,1c0.7-0.1,1.2-0.8,1-1.6L34.6,30.5z"/>
	<path style="fill:rgb(0,0,0)" d="M42.5,0C19,0,0,19,0,42.5S19,85,42.5,85S85,66,85,42.5S66,0,42.5,0z M20,53.1V24c0-2.2,1.8-4,4-4h13.6c2,0,3.7,1.5,3.9,3.5c0,0.1,4,32.2,4,32.3c0,0.6-0.3,0.8-0.7,1.3c-7.2,0-12.9,0-20.8,0C21.8,57.1,20,55.3,20,53.1z M35.6,61.5l-0.2-1.8h6.9c-3.4,3.8-1.9,2.1-4.4,4.9C36.6,64,35.8,62.7,35.6,61.5z M65,61c0,2.2-1.8,4-4,4H41.3l5.8-6.6c0.7-0.8,1-1.9,1-3L44.7,28H61c2.2,0,4,1.9,4,4V61z"/>
</svg>