<?xml version="1.0" encoding="UTF-8"?>
<svg xmlns="http://www.w3.org/2000/svg" viewBox="0 0 85 85" id="identity_group">
  <defs>
    <style>.cc1c2a0c-eaa4-40c5-9cb0-72eddce349ff{fill:none;}.6e16655b-d45e-402c-b038-5e93668e3e16;}</style>
  </defs>
  \1<style>.no-fill {fill:none;}</style>
<g class="no-fill">
    <g id="be446157-3234-43dc-8362-2d358d7ac06b" data-name="Layer 1"><style>.colour-fill {fill:rgb(146,150,151);}</style>
<g class="colour-fill">
      <circle class="cc1c2a0c-eaa4-40c5-9cb0-72eddce349ff" cx="42.5" cy="42.5" r="42.5"/>
      <path class="6e16655b-d45e-402c-b038-5e93668e3e16" d="m59.63,16H25.37c-5.14,0-9.37,4.23-9.37,9.37v34.26c0,5.14,4.23,9.37,9.37,9.37h34.26c5.14,0,9.37-4.23,9.37-9.37V25.37c0-5.14-4.23-9.37-9.37-9.37Zm-6.27,7.24c2.62,0,4.71,2.09,4.71,4.71s-2.09,4.71-4.71,4.71-4.71-2.09-4.71-4.71,2.09-4.71,4.71-4.71Zm-21.72,0c2.62,0,4.71,2.09,4.71,4.71s-2.09,4.71-4.71,4.71-4.71-2.09-4.71-4.71,2.09-4.71,4.71-4.71Zm7.9,38.51h-15.8v-.18c0-3.39,2.74-6.13,6.13-6.13h3.54c3.39,0,6.13,2.74,6.13,6.13v.18Zm-12.61-12.73c0-2.62,2.09-4.71,4.71-4.71s4.71,2.09,4.71,4.71-2.09,4.71-4.71,4.71-4.71-2.09-4.71-4.71Zm12.61-8.35h-15.8v-.18c0-3.39,2.74-6.13,6.13-6.13h3.54c3.39,0,6.13,2.74,6.13,6.13v.18Zm21.72,21.08h-15.8v-.18c0-3.39,2.74-6.13,6.13-6.13h3.54c3.39,0,6.13,2.74,6.13,6.13v.18Zm-12.61-12.73c0-2.62,2.09-4.71,4.71-4.71s4.71,2.09,4.71,4.71-2.09,4.71-4.71,4.71-4.71-2.09-4.71-4.71Zm12.61-8.35h-15.8v-.18c0-3.39,2.74-6.13,6.13-6.13h3.54c3.39,0,6.13,2.74,6.13,6.13v.18Z"/>
    </g>
  </g>
</svg>