<?xml version="1.0" encoding="UTF-8"?>
<!--https://github.com/muchdogesec/stix2icons/-->
<svg xmlns="http://www.w3.org/2000/svg" viewBox="0 0 85 85" id="observed-data">
  <path style="fill:rgb(255,255,255)" d="M42.5,19.92A22.58,22.58,0,1,0,65.08,42.5,22.62,22.62,0,0,0,42.5,19.92Zm0,37.73A15.2,15.2,0,0,1,27.35,42.5a13.6,13.6,0,0,1,.1-2H42V27.35h.5a15.15,15.15,0,0,1,0,30.3Z"/>
  <path style="fill:rgb(255,255,255)" d="M42.5,0A42.5,42.5,0,1,0,85,42.5,42.5,42.5,0,0,0,42.5,0Zm0,71A28.5,28.5,0,1,1,71,42.5,28.47,28.47,0,0,1,42.5,71Z"/>
</svg>