<?xml version="1.0" encoding="UTF-8"?>
<svg xmlns="http://www.w3.org/2000/svg" viewBox="0 0 85 85" id="opinion">
  <path style="fill:rgb(255,255,255)" d="M42.5,34.94a5,5,0,1,0,5,5A5,5,0,0,0,42.5,34.94Z"/>
  <circle cx="55.57" cy="39.9" r="4.97"/>
  <path style="fill:rgb(255,255,255)" d="M42.5,0A42.5,42.5,0,1,0,85,42.5,42.5,42.5,0,0,0,42.5,0Zm0,62.6a35.65,35.65,0,0,1-8.82-1l-10.33,11V57.53C16.46,53.38,12,47,12,39.8,12,27.23,25.68,17,42.5,17S73,27.23,73,39.8,59.32,62.6,42.5,62.6Z"/>
  <circle cx="29.43" cy="39.9" r="4.97"/>
</svg>