<?xml version="1.0" encoding="UTF-8"?>
<!--https://github.com/muchdogesec/stix2icons/-->
<svg xmlns="http://www.w3.org/2000/svg" viewBox="0 0 85 85" id="marking-definition_tlp">
	<path style="fill:rgb(255,192,0)" d="M 53.650469,11.412993 H 32.850521 c -2.867971,0 -5.200026,2.332066 -5.200026,5.200034 v 52.000025 c 0,2.867888 2.332055,5.199943 5.200026,5.199943 h 20.800031 c 2.867888,0 5.199943,-2.332055 5.199943,-5.200026 V 16.613027 c 0,-2.867968 -2.332055,-5.200034 -5.200026,-5.200034 z M 43.250495,68.612969 c -4.301208,0 -7.8,-3.498792 -7.8,-7.800001 0,-4.301213 3.498792,-7.8 7.8,-7.8 4.301209,0 7.800001,3.498787 7.800001,7.8 0,4.301209 -3.498792,7.800001 -7.800001,7.800001 z m 0,-18.199975 c -4.301208,0 -7.8,-3.498792 -7.8,-7.8 0,-4.301208 3.498792,-7.8 7.8,-7.8 4.301209,0 7.800001,3.498792 7.800001,7.8 0,4.301208 -3.498792,7.8 -7.800001,7.8 z m 0,-18.199974 c -4.301208,0 -7.8,-3.498787 -7.8,-7.8 0,-4.301209 3.498792,-7.799993 7.8,-7.799993 4.301209,0 7.800001,3.498784 7.800001,7.799993 0,4.301124 -3.498792,7.8 -7.800001,7.8 z" />
</svg>